<?xml version="1.0" standalone="no"?>
<!DOCTYPE svg PUBLIC "-//W3C//DTD SVG 20010904//EN"
 "http://www.w3.org/TR/2001/REC-SVG-20010904/DTD/svg10.dtd">
<svg version="1.0" xmlns="http://www.w3.org/2000/svg"
 width="512.000000pt" height="512.000000pt" viewBox="0 0 512.000000 512.000000"
 preserveAspectRatio="xMidYMid meet">
<metadata>
Created by potrace 1.14, written by Peter Selinger 2001-2017
</metadata>
<g transform="translate(0.000000,512.000000) scale(0.100000,-0.100000)"
fill="#000000" stroke="none">
<path d="M0 2560 l0 -2560 2560 0 2560 0 0 2560 0 2560 -2560 0 -2560 0 0
-2560z m2600 2355 c129 -22 162 -32 262 -75 93 -40 243 -134 253 -158 2 -7
-16 -133 -41 -280 -25 -147 -51 -305 -59 -352 -7 -47 -16 -97 -19 -112 -3 -16
-8 -39 -11 -53 l-6 -26 -37 28 c-20 15 -39 30 -42 33 -26 28 -177 106 -250
129 -64 20 -215 42 -248 35 -9 -1 -38 -6 -64 -9 -60 -8 -153 -68 -194 -127
-69 -96 -101 -267 -75 -403 33 -178 135 -294 456 -521 349 -246 531 -504 620
-878 33 -142 45 -267 45 -473 0 -316 -41 -549 -136 -774 -82 -194 -218 -372
-360 -469 -44 -31 -167 -93 -205 -104 -141 -40 -179 -46 -321 -46 -145 0 -172
4 -313 43 -73 20 -130 31 -255 46 -41 5 -95 14 -120 20 -25 6 -155 11 -292 11
l-248 0 -2 923 -3 922 -408 1322 c-224 728 -407 1327 -407 1333 0 7 113 10
333 10 l334 0 21 -82 c12 -46 46 -184 76 -308 30 -124 80 -328 111 -455 133
-545 162 -668 215 -910 32 -145 41 -178 47 -172 2 3 20 74 38 159 43 196 89
397 134 583 44 184 103 431 142 590 23 94 49 204 59 245 9 41 32 137 50 213
l34 137 280 1 c155 1 292 5 306 9 42 13 210 11 300 -5z m1834 -841 c3 -9 6
-113 6 -232 0 -158 -4 -231 -15 -271 -16 -63 -27 -107 -120 -508 -36 -154 -65
-288 -65 -297 0 -14 30 -16 276 -16 l276 0 91 -70 c123 -93 137 -106 137 -122
-1 -14 -76 -77 -173 -145 l-61 -43 -318 0 -318 0 -9 -22 c-5 -13 -16 -54 -25
-93 -32 -145 -196 -852 -207 -890 -12 -43 -50 -117 -118 -230 -56 -93 -69
-110 -78 -101 -5 4 -10 104 -11 222 l-4 214 62 263 c63 272 84 362 119 509 35
143 65 128 -255 128 l-276 0 -72 52 c-39 28 -87 67 -106 85 -19 18 -38 33 -42
33 -5 0 -8 9 -8 20 0 11 3 20 8 20 4 0 23 15 42 33 19 18 67 57 106 85 l72 52
325 0 325 0 7 33 c4 17 18 79 31 137 34 143 53 224 69 295 16 70 47 200 75
318 10 45 28 122 40 171 20 87 55 158 166 338 32 51 39 56 48 32z"/>
<path d="M1661 2697 c-6 -15 -27 -78 -47 -140 -20 -62 -49 -150 -65 -197 l-29
-85 0 -423 0 -424 38 -34 c100 -92 294 -204 412 -237 116 -33 140 -37 216 -37
171 0 278 66 349 215 87 180 66 453 -47 615 -54 78 -161 172 -320 283 -226
158 -319 249 -482 472 -14 20 -14 19 -25 -8z"/>
</g>
</svg>
